<svg xmlns="http://www.w3.org/2000/svg" id="_002-user" width="37.999" height="38" data-name="002-user" viewBox="0 0 37.999 38">
    <defs>
        <style>
            .cls-1{fill:#e7eced}.cls-2{fill:#556080}
        </style>
    </defs>
    <path id="Path_700" d="M16.016 32.056l-5.669 3.092a5.094 5.094 0 0 0-.91.647 18.988 18.988 0 0 0 24.4.063 5.029 5.029 0 0 0-1-.67l-6.071-3.035a2.315 2.315 0 0 1-1.28-2.071V27.7a9.171 9.171 0 0 0 .574-.738 13.969 13.969 0 0 0 1.887-3.8 1.907 1.907 0 0 0 1.353-1.815V18.8a1.9 1.9 0 0 0-.635-1.409V13.72S29.417 8 21.672 8s-6.991 5.719-6.991 5.719V17.4a1.9 1.9 0 0 0-.635 1.409v2.542a1.906 1.906 0 0 0 .879 1.6 12.617 12.617 0 0 0 2.3 4.756v2.323a2.317 2.317 0 0 1-1.209 2.026z" class="cls-1" data-name="Path 700" transform="translate(-2.671 -2.264)"/>
    <g id="Group_2256" data-name="Group 2256">
        <path id="Path_701" d="M19.325 0A18.988 18.988 0 0 0 6.774 33.526a5.049 5.049 0 0 1 .9-.641l5.669-3.092a2.316 2.316 0 0 0 1.207-2.033v-2.323a12.6 12.6 0 0 1-2.3-4.756 1.907 1.907 0 0 1-.879-1.6v-2.542a1.9 1.9 0 0 1 .635-1.409v-3.675S11.254 5.736 19 5.736s6.991 5.719 6.991 5.719v3.675a1.9 1.9 0 0 1 .635 1.409v2.542a1.907 1.907 0 0 1-1.353 1.819 13.969 13.969 0 0 1-1.887 3.8 9.168 9.168 0 0 1-.574.738v2.382a2.314 2.314 0 0 0 1.28 2.071l6.071 3.035a5.055 5.055 0 0 1 1 .668A19 19 0 0 0 19.325 0z" class="cls-2" data-name="Path 701"/>
    </g>
</svg>
